<?xml version="1.0" encoding="UTF-8"?>
<svg version="1.1" xmlns="http://www.w3.org/2000/svg" width="1080" height="1080">
<path d="M0 0 C33.33 0 66.66 0 101 0 C101 11.22 101 22.44 101 34 C112.22 34 123.44 34 135 34 C135 44.89 135 55.78 135 67 C145.89 67 156.78 67 168 67 C168 78.22 168 89.44 168 101 C179.22 101 190.44 101 202 101 C202 112.22 202 123.44 202 135 C213.22 135 224.44 135 236 135 C236 146.22 236 157.44 236 169 C247.22 169 258.44 169 270 169 C270 179.89 270 190.78 270 202 C280.89 202 291.78 202 303 202 C303 213.22 303 224.44 303 236 C314.22 236 325.44 236 337 236 C337 247.22 337 258.44 337 270 C359.44 270 381.88 270 405 270 C405 258.78 405 247.56 405 236 C415.89 236 426.78 236 438 236 C438 224.78 438 213.56 438 202 C449.22 202 460.44 202 472 202 C472 191.11 472 180.22 472 169 C483.22 169 494.44 169 506 169 C506 157.78 506 146.56 506 135 C517.22 135 528.44 135 540 135 C540 123.78 540 112.56 540 101 C550.89 101 561.78 101 573 101 C573 89.78 573 78.56 573 67 C584.22 67 595.44 67 607 67 C607 56.11 607 45.22 607 34 C618.22 34 629.44 34 641 34 C641 22.78 641 11.56 641 0 C674.33 0 707.66 0 742 0 C742 11.22 742 22.44 742 34 C753.22 34 764.44 34 776 34 C776 67.33 776 100.66 776 135 C764.78 135 753.56 135 742 135 C742 146.22 742 157.44 742 169 C730.78 169 719.56 169 708 169 C708 179.89 708 190.78 708 202 C697.11 202 686.22 202 675 202 C675 213.22 675 224.44 675 236 C663.78 236 652.56 236 641 236 C641 247.22 641 258.44 641 270 C629.78 270 618.56 270 607 270 C607 281.22 607 292.44 607 304 C595.78 304 584.56 304 573 304 C573 314.89 573 325.78 573 337 C562.11 337 551.22 337 540 337 C540 348.22 540 359.44 540 371 C528.78 371 517.56 371 506 371 C506 393.44 506 415.88 506 439 C517.22 439 528.44 439 540 439 C540 449.89 540 460.78 540 472 C550.89 472 561.78 472 573 472 C573 483.22 573 494.44 573 506 C584.22 506 595.44 506 607 506 C607 517.22 607 528.44 607 540 C618.22 540 629.44 540 641 540 C641 551.22 641 562.44 641 574 C652.22 574 663.44 574 675 574 C675 584.89 675 595.78 675 607 C685.89 607 696.78 607 708 607 C708 618.22 708 629.44 708 641 C719.22 641 730.44 641 742 641 C742 652.22 742 663.44 742 675 C753.22 675 764.44 675 776 675 C776 708.33 776 741.66 776 776 C764.78 776 753.56 776 742 776 C742 787.22 742 798.44 742 810 C708.67 810 675.34 810 641 810 C641 798.78 641 787.56 641 776 C629.78 776 618.56 776 607 776 C607 764.78 607 753.56 607 742 C595.78 742 584.56 742 573 742 C573 731.11 573 720.22 573 709 C562.11 709 551.22 709 540 709 C540 697.78 540 686.56 540 675 C528.78 675 517.56 675 506 675 C506 663.78 506 652.56 506 641 C494.78 641 483.56 641 472 641 C472 629.78 472 618.56 472 607 C460.78 607 449.56 607 438 607 C438 596.11 438 585.22 438 574 C427.11 574 416.22 574 405 574 C405 562.78 405 551.56 405 540 C382.56 540 360.12 540 337 540 C337 551.22 337 562.44 337 574 C325.78 574 314.56 574 303 574 C303 584.89 303 595.78 303 607 C292.11 607 281.22 607 270 607 C270 618.22 270 629.44 270 641 C258.78 641 247.56 641 236 641 C236 652.22 236 663.44 236 675 C224.78 675 213.56 675 202 675 C202 686.22 202 697.44 202 709 C190.78 709 179.56 709 168 709 C168 719.89 168 730.78 168 742 C157.11 742 146.22 742 135 742 C135 753.22 135 764.44 135 776 C123.78 776 112.56 776 101 776 C101 787.22 101 798.44 101 810 C67.67 810 34.34 810 0 810 C0 798.78 0 787.56 0 776 C-11.22 776 -22.44 776 -34 776 C-34 742.67 -34 709.34 -34 675 C-22.78 675 -11.56 675 0 675 C0 663.78 0 652.56 0 641 C10.89 641 21.78 641 33 641 C33 629.78 33 618.56 33 607 C44.22 607 55.44 607 67 607 C67 596.11 67 585.22 67 574 C78.22 574 89.44 574 101 574 C101 562.78 101 551.56 101 540 C112.22 540 123.44 540 135 540 C135 528.78 135 517.56 135 506 C145.89 506 156.78 506 168 506 C168 494.78 168 483.56 168 472 C179.22 472 190.44 472 202 472 C202 461.11 202 450.22 202 439 C213.22 439 224.44 439 236 439 C236 416.56 236 394.12 236 371 C224.78 371 213.56 371 202 371 C202 359.78 202 348.56 202 337 C190.78 337 179.56 337 168 337 C168 326.11 168 315.22 168 304 C157.11 304 146.22 304 135 304 C135 292.78 135 281.56 135 270 C123.78 270 112.56 270 101 270 C101 258.78 101 247.56 101 236 C89.78 236 78.56 236 67 236 C67 224.78 67 213.56 67 202 C55.78 202 44.56 202 33 202 C33 191.11 33 180.22 33 169 C22.11 169 11.22 169 0 169 C0 157.78 0 146.56 0 135 C-11.22 135 -22.44 135 -34 135 C-34 101.67 -34 68.34 -34 34 C-22.78 34 -11.56 34 0 34 C0 22.78 0 11.56 0 0 Z " fill="#131313" transform="translate(169,135)"/>
<path d="M0 0 C22.44 0 44.88 0 68 0 C68 11.22 68 22.44 68 34 C79.22 34 90.44 34 102 34 C102 45.22 102 56.44 102 68 C112.89 68 123.78 68 135 68 C135 79.22 135 90.44 135 102 C146.22 102 157.44 102 169 102 C169 112.89 169 123.78 169 135 C180.22 135 191.44 135 203 135 C203 146.22 203 157.44 203 169 C214.22 169 225.44 169 237 169 C237 180.22 237 191.44 237 203 C247.89 203 258.78 203 270 203 C270 214.22 270 225.44 270 237 C314.55 237 359.1 237 405 237 C405 225.78 405 214.56 405 203 C416.22 203 427.44 203 439 203 C439 191.78 439 180.56 439 169 C450.22 169 461.44 169 473 169 C473 157.78 473 146.56 473 135 C484.22 135 495.44 135 507 135 C507 124.11 507 113.22 507 102 C517.89 102 528.78 102 540 102 C540 90.78 540 79.56 540 68 C551.22 68 562.44 68 574 68 C574 56.78 574 45.56 574 34 C585.22 34 596.44 34 608 34 C608 22.78 608 11.56 608 0 C630.11 0 652.22 0 675 0 C675 22.44 675 44.88 675 68 C664.11 68 653.22 68 642 68 C642 79.22 642 90.44 642 102 C630.78 102 619.56 102 608 102 C608 112.89 608 123.78 608 135 C596.78 135 585.56 135 574 135 C574 146.22 574 157.44 574 169 C562.78 169 551.56 169 540 169 C540 180.22 540 191.44 540 203 C529.11 203 518.22 203 507 203 C507 214.22 507 225.44 507 237 C495.78 237 484.56 237 473 237 C473 247.89 473 258.78 473 270 C461.78 270 450.56 270 439 270 C439 314.55 439 359.1 439 405 C450.22 405 461.44 405 473 405 C473 416.22 473 427.44 473 439 C484.22 439 495.44 439 507 439 C507 450.22 507 461.44 507 473 C517.89 473 528.78 473 540 473 C540 484.22 540 495.44 540 507 C551.22 507 562.44 507 574 507 C574 517.89 574 528.78 574 540 C585.22 540 596.44 540 608 540 C608 551.22 608 562.44 608 574 C619.22 574 630.44 574 642 574 C642 585.22 642 596.44 642 608 C652.89 608 663.78 608 675 608 C675 630.11 675 652.22 675 675 C652.89 675 630.78 675 608 675 C608 664.11 608 653.22 608 642 C596.78 642 585.56 642 574 642 C574 630.78 574 619.56 574 608 C562.78 608 551.56 608 540 608 C540 596.78 540 585.56 540 574 C529.11 574 518.22 574 507 574 C507 562.78 507 551.56 507 540 C495.78 540 484.56 540 473 540 C473 529.11 473 518.22 473 507 C461.78 507 450.56 507 439 507 C439 495.78 439 484.56 439 473 C427.78 473 416.56 473 405 473 C405 461.78 405 450.56 405 439 C360.45 439 315.9 439 270 439 C270 450.22 270 461.44 270 473 C259.11 473 248.22 473 237 473 C237 484.22 237 495.44 237 507 C225.78 507 214.56 507 203 507 C203 517.89 203 528.78 203 540 C191.78 540 180.56 540 169 540 C169 551.22 169 562.44 169 574 C157.78 574 146.56 574 135 574 C135 585.22 135 596.44 135 608 C124.11 608 113.22 608 102 608 C102 619.22 102 630.44 102 642 C90.78 642 79.56 642 68 642 C68 652.89 68 663.78 68 675 C45.56 675 23.12 675 0 675 C0 652.89 0 630.78 0 608 C11.22 608 22.44 608 34 608 C34 596.78 34 585.56 34 574 C45.22 574 56.44 574 68 574 C68 562.78 68 551.56 68 540 C79.22 540 90.44 540 102 540 C102 529.11 102 518.22 102 507 C112.89 507 123.78 507 135 507 C135 495.78 135 484.56 135 473 C146.22 473 157.44 473 169 473 C169 461.78 169 450.56 169 439 C180.22 439 191.44 439 203 439 C203 427.78 203 416.56 203 405 C214.22 405 225.44 405 237 405 C237 360.45 237 315.9 237 270 C225.78 270 214.56 270 203 270 C203 259.11 203 248.22 203 237 C191.78 237 180.56 237 169 237 C169 225.78 169 214.56 169 203 C157.78 203 146.56 203 135 203 C135 191.78 135 180.56 135 169 C124.11 169 113.22 169 102 169 C102 157.78 102 146.56 102 135 C90.78 135 79.56 135 68 135 C68 124.11 68 113.22 68 102 C56.78 102 45.56 102 34 102 C34 90.78 34 79.56 34 68 C22.78 68 11.56 68 0 68 C0 45.56 0 23.12 0 0 Z " fill="#000000" transform="translate(202,202)"/>
<path d="M0 0 C33.33 0 66.66 0 101 0 C101 11.22 101 22.44 101 34 C67.67 34 34.34 34 0 34 C0 22.78 0 11.56 0 0 Z " fill="#1A1A1A" transform="translate(810,911)"/>
<path d="M0 0 C33.33 0 66.66 0 101 0 C101 11.22 101 22.44 101 34 C67.67 34 34.34 34 0 34 C0 22.78 0 11.56 0 0 Z " fill="#1A1A1A" transform="translate(169,911)"/>
<path d="M0 0 C11.22 0 22.44 0 34 0 C34 33.33 34 66.66 34 101 C22.78 101 11.56 101 0 101 C0 67.67 0 34.34 0 0 Z " fill="#1A1A1A" transform="translate(911,810)"/>
<path d="M0 0 C11.22 0 22.44 0 34 0 C34 33.33 34 66.66 34 101 C22.78 101 11.56 101 0 101 C0 67.67 0 34.34 0 0 Z " fill="#1A1A1A" transform="translate(135,810)"/>
<path d="M0 0 C11.22 0 22.44 0 34 0 C34 33.33 34 66.66 34 101 C22.78 101 11.56 101 0 101 C0 67.67 0 34.34 0 0 Z " fill="#1A1A1A" transform="translate(911,169)"/>
<path d="M0 0 C33.33 0 66.66 0 101 0 C101 11.22 101 22.44 101 34 C67.67 34 34.34 34 0 34 C0 22.78 0 11.56 0 0 Z " fill="#1A1A1A" transform="translate(810,135)"/>
<path d="M0 0 C33.33 0 66.66 0 101 0 C101 11.22 101 22.44 101 34 C67.67 34 34.34 34 0 34 C0 22.78 0 11.56 0 0 Z " fill="#1A1A1A" transform="translate(169,135)"/>
<path d="M0 0 C11.22 0 22.44 0 34 0 C34 22.44 34 44.88 34 68 C22.78 68 11.56 68 0 68 C0 45.56 0 23.12 0 0 Z " fill="#1A1A1A" transform="translate(405,506)"/>
<path d="M0 0 C11.22 0 22.44 0 34 0 C34 11.22 34 22.44 34 34 C22.78 34 11.56 34 0 34 C0 22.78 0 11.56 0 0 Z " fill="#1A1A1A" transform="translate(776,877)"/>
<path d="M0 0 C11.22 0 22.44 0 34 0 C34 11.22 34 22.44 34 34 C22.78 34 11.56 34 0 34 C0 22.78 0 11.56 0 0 Z " fill="#1A1A1A" transform="translate(270,877)"/>
<path d="M0 0 C11.22 0 22.44 0 34 0 C34 11.22 34 22.44 34 34 C22.78 34 11.56 34 0 34 C0 22.78 0 11.56 0 0 Z " fill="#1A1A1A" transform="translate(877,776)"/>
<path d="M0 0 C11.22 0 22.44 0 34 0 C34 11.22 34 22.44 34 34 C22.78 34 11.56 34 0 34 C0 22.78 0 11.56 0 0 Z " fill="#111111" transform="translate(337,776)"/>
<path d="M0 0 C11.22 0 22.44 0 34 0 C34 11.22 34 22.44 34 34 C22.78 34 11.56 34 0 34 C0 22.78 0 11.56 0 0 Z " fill="#1A1A1A" transform="translate(641,742)"/>
<path d="M0 0 C11.22 0 22.44 0 34 0 C34 11.22 34 22.44 34 34 C22.78 34 11.56 34 0 34 C0 22.78 0 11.56 0 0 Z " fill="#111111" transform="translate(371,742)"/>
<path d="M0 0 C11.22 0 22.44 0 34 0 C34 11.22 34 22.44 34 34 C22.78 34 11.56 34 0 34 C0 22.78 0 11.56 0 0 Z " fill="#1A1A1A" transform="translate(742,641)"/>
<path d="M0 0 C11.22 0 22.44 0 34 0 C34 11.22 34 22.44 34 34 C22.78 34 11.56 34 0 34 C0 22.78 0 11.56 0 0 Z " fill="#111111" transform="translate(472,641)"/>
<path d="M0 0 C11.22 0 22.44 0 34 0 C34 11.22 34 22.44 34 34 C22.78 34 11.56 34 0 34 C0 22.78 0 11.56 0 0 Z " fill="#1A1A1A" transform="translate(337,607)"/>
<path d="M0 0 C11.22 0 22.44 0 34 0 C34 11.22 34 22.44 34 34 C22.78 34 11.56 34 0 34 C0 22.78 0 11.56 0 0 Z " fill="#111111" transform="translate(641,472)"/>
<path d="M0 0 C11.22 0 22.44 0 34 0 C34 11.22 34 22.44 34 34 C22.78 34 11.56 34 0 34 C0 22.78 0 11.56 0 0 Z " fill="#1A1A1A" transform="translate(371,472)"/>
<path d="M0 0 C11.22 0 22.44 0 34 0 C34 11.22 34 22.44 34 34 C22.78 34 11.56 34 0 34 C0 22.78 0 11.56 0 0 Z " fill="#111111" transform="translate(742,371)"/>
<path d="M0 0 C11.22 0 22.44 0 34 0 C34 11.22 34 22.44 34 34 C22.78 34 11.56 34 0 34 C0 22.78 0 11.56 0 0 Z " fill="#1A1A1A" transform="translate(472,371)"/>
<path d="M0 0 C11.22 0 22.44 0 34 0 C34 11.22 34 22.44 34 34 C22.78 34 11.56 34 0 34 C0 22.78 0 11.56 0 0 Z " fill="#111111" transform="translate(776,337)"/>
<path d="M0 0 C11.22 0 22.44 0 34 0 C34 11.22 34 22.44 34 34 C22.78 34 11.56 34 0 34 C0 22.78 0 11.56 0 0 Z " fill="#1A1A1A" transform="translate(607,337)"/>
<path d="M0 0 C11.22 0 22.44 0 34 0 C34 11.22 34 22.44 34 34 C22.78 34 11.56 34 0 34 C0 22.78 0 11.56 0 0 Z " fill="#1A1A1A" transform="translate(236,337)"/>
<path d="M0 0 C11.22 0 22.44 0 34 0 C34 11.22 34 22.44 34 34 C22.78 34 11.56 34 0 34 C0 22.78 0 11.56 0 0 Z " fill="#1A1A1A" transform="translate(877,270)"/>
<path d="M0 0 C11.22 0 22.44 0 34 0 C34 11.22 34 22.44 34 34 C22.78 34 11.56 34 0 34 C0 22.78 0 11.56 0 0 Z " fill="#1A1A1A" transform="translate(337,236)"/>
<path d="M0 0 C11.22 0 22.44 0 34 0 C34 11.22 34 22.44 34 34 C22.78 34 11.56 34 0 34 C0 22.78 0 11.56 0 0 Z " fill="#1A1A1A" transform="translate(742,202)"/>
<path d="M0 0 C11.22 0 22.44 0 34 0 C34 10.89 34 21.78 34 33 C22.78 33 11.56 33 0 33 C0 22.11 0 11.22 0 0 Z " fill="#1A1A1A" transform="translate(742,844)"/>
<path d="M0 0 C10.89 0 21.78 0 33 0 C33 11.22 33 22.44 33 34 C22.11 34 11.22 34 0 34 C0 22.78 0 11.56 0 0 Z " fill="#111111" transform="translate(709,776)"/>
<path d="M0 0 C10.89 0 21.78 0 33 0 C33 11.22 33 22.44 33 34 C22.11 34 11.22 34 0 34 C0 22.78 0 11.56 0 0 Z " fill="#1A1A1A" transform="translate(169,776)"/>
<path d="M0 0 C10.89 0 21.78 0 33 0 C33 11.22 33 22.44 33 34 C22.11 34 11.22 34 0 34 C0 22.78 0 11.56 0 0 Z " fill="#1A1A1A" transform="translate(844,742)"/>
<path d="M0 0 C11.22 0 22.44 0 34 0 C34 10.89 34 21.78 34 33 C22.78 33 11.56 33 0 33 C0 22.11 0 11.22 0 0 Z " fill="#111111" transform="translate(776,709)"/>
<path d="M0 0 C11.22 0 22.44 0 34 0 C34 10.89 34 21.78 34 33 C22.78 33 11.56 33 0 33 C0 22.11 0 11.22 0 0 Z " fill="#1A1A1A" transform="translate(607,709)"/>
<path d="M0 0 C11.22 0 22.44 0 34 0 C34 10.89 34 21.78 34 33 C22.78 33 11.56 33 0 33 C0 22.11 0 11.22 0 0 Z " fill="#1A1A1A" transform="translate(236,709)"/>
<path d="M0 0 C10.89 0 21.78 0 33 0 C33 11.22 33 22.44 33 34 C22.11 34 11.22 34 0 34 C0 22.78 0 11.56 0 0 Z " fill="#111111" transform="translate(574,641)"/>
<path d="M0 0 C10.89 0 21.78 0 33 0 C33 11.22 33 22.44 33 34 C22.11 34 11.22 34 0 34 C0 22.78 0 11.56 0 0 Z " fill="#1A1A1A" transform="translate(304,641)"/>
<path d="M0 0 C10.89 0 21.78 0 33 0 C33 11.22 33 22.44 33 34 C22.11 34 11.22 34 0 34 C0 22.78 0 11.56 0 0 Z " fill="#1A1A1A" transform="translate(709,607)"/>
<path d="M0 0 C11.22 0 22.44 0 34 0 C34 10.89 34 21.78 34 33 C22.78 33 11.56 33 0 33 C0 22.11 0 11.22 0 0 Z " fill="#111111" transform="translate(641,574)"/>
<path d="M0 0 C11.22 0 22.44 0 34 0 C34 10.89 34 21.78 34 33 C22.78 33 11.56 33 0 33 C0 22.11 0 11.22 0 0 Z " fill="#1A1A1A" transform="translate(371,574)"/>
<path d="M0 0 C11.22 0 22.44 0 34 0 C34 10.89 34 21.78 34 33 C22.78 33 11.56 33 0 33 C0 22.11 0 11.22 0 0 Z " fill="#1A1A1A" transform="translate(337,439)"/>
<path d="M0 0 C10.89 0 21.78 0 33 0 C33 11.22 33 22.44 33 34 C22.11 34 11.22 34 0 34 C0 22.78 0 11.56 0 0 Z " fill="#1A1A1A" transform="translate(574,371)"/>
<path d="M0 0 C10.89 0 21.78 0 33 0 C33 11.22 33 22.44 33 34 C22.11 34 11.22 34 0 34 C0 22.78 0 11.56 0 0 Z " fill="#111111" transform="translate(304,371)"/>
<path d="M0 0 C10.89 0 21.78 0 33 0 C33 11.22 33 22.44 33 34 C22.11 34 11.22 34 0 34 C0 22.78 0 11.56 0 0 Z " fill="#1A1A1A" transform="translate(439,337)"/>
<path d="M0 0 C11.22 0 22.44 0 34 0 C34 10.89 34 21.78 34 33 C22.78 33 11.56 33 0 33 C0 22.11 0 11.22 0 0 Z " fill="#1A1A1A" transform="translate(641,304)"/>
<path d="M0 0 C11.22 0 22.44 0 34 0 C34 10.89 34 21.78 34 33 C22.78 33 11.56 33 0 33 C0 22.11 0 11.22 0 0 Z " fill="#111111" transform="translate(371,304)"/>
<path d="M0 0 C11.22 0 22.44 0 34 0 C34 10.89 34 21.78 34 33 C22.78 33 11.56 33 0 33 C0 22.11 0 11.22 0 0 Z " fill="#1A1A1A" transform="translate(202,304)"/>
<path d="M0 0 C10.89 0 21.78 0 33 0 C33 11.22 33 22.44 33 34 C22.11 34 11.22 34 0 34 C0 22.78 0 11.56 0 0 Z " fill="#1A1A1A" transform="translate(169,270)"/>
<path d="M0 0 C10.89 0 21.78 0 33 0 C33 11.22 33 22.44 33 34 C22.11 34 11.22 34 0 34 C0 22.78 0 11.56 0 0 Z " fill="#1A1A1A" transform="translate(709,236)"/>
<path d="M0 0 C10.89 0 21.78 0 33 0 C33 11.22 33 22.44 33 34 C22.11 34 11.22 34 0 34 C0 22.78 0 11.56 0 0 Z " fill="#1A1A1A" transform="translate(304,202)"/>
<path d="M0 0 C11.22 0 22.44 0 34 0 C34 10.89 34 21.78 34 33 C22.78 33 11.56 33 0 33 C0 22.11 0 11.22 0 0 Z " fill="#1A1A1A" transform="translate(776,169)"/>
<path d="M0 0 C11.22 0 22.44 0 34 0 C34 10.89 34 21.78 34 33 C22.78 33 11.56 33 0 33 C0 22.11 0 11.22 0 0 Z " fill="#1A1A1A" transform="translate(270,169)"/>
<path d="M0 0 C10.89 0 21.78 0 33 0 C33 10.89 33 21.78 33 33 C22.11 33 11.22 33 0 33 C0 22.11 0 11.22 0 0 Z " fill="#1A1A1A" transform="translate(304,844)"/>
<path d="M0 0 C10.89 0 21.78 0 33 0 C33 10.89 33 21.78 33 33 C22.11 33 11.22 33 0 33 C0 22.11 0 11.22 0 0 Z " fill="#1A1A1A" transform="translate(439,709)"/>
<path d="M0 0 C10.89 0 21.78 0 33 0 C33 10.89 33 21.78 33 33 C22.11 33 11.22 33 0 33 C0 22.11 0 11.22 0 0 Z " fill="#1A1A1A" transform="translate(709,439)"/>
<path d="M0 0 C10.89 0 21.78 0 33 0 C33 10.89 33 21.78 33 33 C22.11 33 11.22 33 0 33 C0 22.11 0 11.22 0 0 Z " fill="#1A1A1A" transform="translate(844,304)"/>
</svg>
