<svg width="100" height="100" viewBox="0 0 100 100" fill="none" xmlns="http://www.w3.org/2000/svg">
<path d="M27 47L27 10C27 7.23858 29.2386 5 32 5L37 5" stroke="white" stroke-width="10" stroke-linecap="round"/>
<path d="M41.7512 22.4399L76.7795 11.0585C79.4058 10.2052 82.2265 11.6424 83.0799 14.2687L84.7664 19.4593" stroke="white" stroke-width="10" stroke-linecap="round"/>
<path d="M69.9781 32.0025L91.6268 61.7993C93.2499 64.0333 92.7547 67.1602 90.5206 68.7833L86.1052 71.9913" stroke="white" stroke-width="10" stroke-linecap="round"/>
<path d="M68.5615 60.1581L46.9128 89.9549C45.2897 92.189 42.1629 92.6842 39.9288 91.0611L35.5134 87.8531" stroke="white" stroke-width="10" stroke-linecap="round"/>
<path d="M44.7835 68.5174L9.75526 57.136C7.12899 56.2827 5.69174 53.4619 6.54506 50.8356L8.23159 45.645" stroke="white" stroke-width="10" stroke-linecap="round"/>
<path d="M74 45C74 58.3372 63.3971 69 50.5 69C37.6029 69 27 58.3372 27 45C27 31.6628 37.6029 21 50.5 21C63.3971 21 74 31.6628 74 45Z" stroke="white" stroke-width="10"/>
<path d="M74 45C74 58.3372 63.3971 69 50.5 69C37.6029 69 27 58.3372 27 45C27 31.6628 37.6029 21 50.5 21C63.3971 21 74 31.6628 74 45Z" stroke="white" stroke-width="10"/>
</svg>
