<svg width="100" height="100" viewBox="0 0 100 100" fill="none" xmlns="http://www.w3.org/2000/svg">
<g clip-path="url(#clip0_914_42)">
<rect width="100" height="100" transform="matrix(0 1 -1 0 100 0)" fill="black"/>
<path d="M91.2583 35.059L96.0136 33.5139L96.0136 33.5139L91.2583 35.059ZM78.6576 28.6386L77.1125 23.8833L77.1125 23.8833L78.6576 28.6386ZM93.6849 42.5272L98.4402 40.9822L98.4402 40.9822L93.6849 42.5272ZM87.2645 55.128L85.7194 50.3727L85.7194 50.3727L87.2645 55.128ZM82.3777 56.7158L80.8326 51.9605L77.7668 52.9567L77.4086 56.1603L82.3777 56.7158ZM78.7743 68.354L74.3612 66.0035L72.8914 68.7633L74.7292 71.2929L78.7743 68.354ZM81.6715 72.3416L85.7166 69.4026L85.7166 69.4026L81.6715 72.3416ZM79.4592 86.3096L76.5203 82.2645L76.5202 82.2645L79.4592 86.3096ZM73.1063 90.9252L76.0452 94.9703L76.0452 94.9703L73.1063 90.9252ZM59.1382 88.7129L55.0932 91.6518L55.0932 91.6519L59.1382 88.7129ZM56.4461 85.0075L60.4912 82.0686L58.6057 79.4734L55.4608 80.1055L56.4461 85.0075ZM43.7058 85.0422L44.6641 80.1349L41.5348 79.5238L39.6607 82.1033L43.7058 85.0422ZM41.0388 88.7129L45.0839 91.6519L45.0839 91.6519L41.0388 88.7129ZM27.0708 90.9252L30.0097 86.8802L30.0097 86.8802L27.0708 90.9252ZM20.7179 86.3096L23.6568 82.2645L23.6568 82.2645L20.7179 86.3096ZM18.5056 72.3416L14.4605 69.4026L14.4605 69.4026L18.5056 72.3416ZM21.2875 68.5126L25.3326 71.4515L27.1818 68.9063L25.6875 66.1378L21.2875 68.5126ZM17.5916 56.6483L22.5618 56.1032L22.2095 52.8915L19.1367 51.893L17.5916 56.6483ZM12.9125 55.128L11.3675 59.8833L11.3675 59.8833L12.9125 55.128ZM6.49215 42.5273L11.2474 44.0723L11.2474 44.0723L6.49215 42.5273ZM8.91874 35.059L4.16346 33.5139L4.16346 33.5139L8.91874 35.059ZM21.5195 28.6386L19.9744 33.3939L19.9744 33.3939L21.5195 28.6386ZM26.6486 30.3051L25.1035 35.0604L28.0594 36.0208L30.2289 33.7954L26.6486 30.3051ZM36.1622 23.5313L38.2858 28.058L41.1622 26.7085V23.5313L36.1622 23.5313ZM64.0148 23.6261H59.0148V26.7794L61.8604 28.1381L64.0148 23.6261ZM73.3763 30.3546L69.7887 33.8373L71.9586 36.0725L74.9214 35.1098L73.3763 30.3546ZM96.0136 33.5139C93.4536 25.6351 84.9913 21.3233 77.1125 23.8833L80.2027 33.3938C82.8289 32.5405 85.6497 33.9778 86.503 36.604L96.0136 33.5139ZM98.4402 40.9822L96.0136 33.5139L86.503 36.604L88.9296 44.0723L98.4402 40.9822ZM88.8096 59.8833C96.6884 57.3233 101 48.861 98.4402 40.9822L88.9296 44.0723C89.7829 46.6986 88.3457 49.5194 85.7194 50.3727L88.8096 59.8833ZM83.9228 61.4711L88.8096 59.8833L85.7194 50.3727L80.8326 51.9605L83.9228 61.4711ZM77.4086 56.1603C77.0145 59.6866 75.9562 63.0088 74.3612 66.0035L83.1874 70.7044C85.3641 66.6174 86.8092 62.0798 87.3467 57.2713L77.4086 56.1603ZM85.7166 69.4026L82.8194 65.415L74.7292 71.2929L77.6264 75.2805L85.7166 69.4026ZM82.3981 90.3547C89.1002 85.4853 90.586 76.1047 85.7166 69.4026L77.6264 75.2805C79.2495 77.5145 78.7543 80.6414 76.5203 82.2645L82.3981 90.3547ZM76.0452 94.9703L82.3981 90.3547L76.5202 82.2645L70.1673 86.8801L76.0452 94.9703ZM55.0932 91.6519C59.9625 98.354 69.3431 99.8397 76.0452 94.9703L70.1673 86.8801C67.9333 88.5033 64.8064 88.008 63.1833 85.774L55.0932 91.6519ZM52.401 87.9464L55.0932 91.6518L63.1833 85.774L60.4912 82.0686L52.401 87.9464ZM55.4608 80.1055C53.6961 80.4603 51.8666 80.6472 49.9884 80.6472V90.6472C52.532 90.6472 55.0215 90.3938 57.4314 89.9095L55.4608 80.1055ZM49.9884 80.6472C48.1626 80.6472 46.383 80.4705 44.6641 80.1349L42.7475 89.9495C45.0945 90.4078 47.5159 90.6472 49.9884 90.6472V80.6472ZM45.0839 91.6519L47.7509 87.9811L39.6607 82.1033L36.9937 85.774L45.0839 91.6519ZM24.1319 94.9703C30.834 99.8397 40.2145 98.354 45.0839 91.6519L36.9937 85.774C35.3706 88.008 32.2438 88.5033 30.0097 86.8802L24.1319 94.9703ZM17.779 90.3547L24.1319 94.9703L30.0097 86.8802L23.6568 82.2645L17.779 90.3547ZM14.4605 69.4026C9.59111 76.1048 11.0769 85.4853 17.779 90.3547L23.6568 82.2645C21.4228 80.6414 20.9275 77.5145 22.5507 75.2805L14.4605 69.4026ZM17.2424 65.5736L14.4605 69.4026L22.5507 75.2805L25.3326 71.4515L17.2424 65.5736ZM25.6875 66.1378C24.0437 63.092 22.9567 59.7034 22.5618 56.1032L12.6214 57.1935C13.1599 62.1028 14.6442 66.7311 16.8875 70.8874L25.6875 66.1378ZM11.3675 59.8833L16.0465 61.4036L19.1367 51.893L14.4576 50.3727L11.3675 59.8833ZM1.73687 40.9822C-0.823121 48.861 3.48865 57.3233 11.3675 59.8833L14.4576 50.3727C11.8314 49.5194 10.3941 46.6986 11.2474 44.0723L1.73687 40.9822ZM4.16346 33.5139L1.73687 40.9822L11.2474 44.0723L13.674 36.6041L4.16346 33.5139ZM23.0646 23.8833C15.1857 21.3233 6.72344 25.6351 4.16346 33.5139L13.674 36.6041C14.5274 33.9778 17.3481 32.5405 19.9744 33.3939L23.0646 23.8833ZM28.1937 25.5498L23.0646 23.8833L19.9744 33.3939L25.1035 35.0604L28.1937 25.5498ZM30.2289 33.7954C32.5366 31.4281 35.2634 29.4758 38.2858 28.058L34.0386 19.0047C29.9154 20.939 26.2046 23.5978 23.0684 26.8149L30.2289 33.7954ZM31.1622 18V23.5313L41.1622 23.5313V18L31.1622 18ZM46.1622 3C37.8779 3 31.1622 9.71573 31.1622 18L41.1622 18C41.1622 15.2386 43.4008 13 46.1622 13V3ZM54.0148 3L46.1622 3V13L54.0148 13V3ZM69.0148 18C69.0148 9.71572 62.2991 3 54.0148 3V13C56.7762 13 59.0148 15.2386 59.0148 18H69.0148ZM69.0148 23.6261V18H59.0148V23.6261H69.0148ZM61.8604 28.1381C64.8331 29.5575 67.5155 31.4956 69.7887 33.8373L76.9639 26.8719C73.8745 23.6894 70.2243 21.0503 66.1692 19.114L61.8604 28.1381ZM77.1125 23.8833L71.8312 25.5993L74.9214 35.1098L80.2027 33.3938L77.1125 23.8833Z" fill="white"/>
<circle cx="50.25" cy="53.25" r="5.625" stroke="white" stroke-width="11.25"/>
</g>
<defs>
<clipPath id="clip0_914_42">
<rect width="100" height="100" fill="white" transform="matrix(0 1 -1 0 100 0)"/>
</clipPath>
</defs>
</svg>
