<svg width="100" height="100" viewBox="0 0 100 100" fill="none" xmlns="http://www.w3.org/2000/svg">
<path d="M18 23L18 76C18 81.5228 22.4772 86 28 86C33.5228 86 38 81.5228 38 76V23C38 17.4771 33.5228 13 28 13C22.4772 13 18 17.4771 18 23Z" stroke="white" stroke-width="10" stroke-linecap="round" stroke-linejoin="round"/>
<path d="M61 23L61 76C61 81.5228 65.4772 86 71 86C76.5228 86 81 81.5228 81 76V23C81 17.4771 76.5228 13 71 13C65.4772 13 61 17.4771 61 23Z" stroke="white" stroke-width="10" stroke-linecap="round" stroke-linejoin="round"/>
</svg>
