<svg width="100" height="100" viewBox="0 0 100 100" fill="none" xmlns="http://www.w3.org/2000/svg">
<circle cx="21" cy="21" r="21" transform="matrix(-1 0 0 1 80.6039 16.1776)" stroke="white" stroke-width="10"/>
<path d="M49.5683 55.1775L52.0719 50.8495L59.5538 55.1775L52.0719 59.5055L49.5683 55.1775ZM49.5683 18.8085L52.0719 14.4805L59.5538 18.8085L52.0719 23.1365L49.5683 18.8085ZM44.0718 36.993C44.0718 42.9064 47.2786 48.0766 52.0719 50.8495L47.0647 59.5055C39.3084 55.0187 34.0718 46.6204 34.0718 36.993H44.0718ZM52.0719 23.1365C47.2786 25.9093 44.0718 31.0796 44.0718 36.993H34.0718C34.0718 27.3656 39.3084 18.9672 47.0647 14.4805L52.0719 23.1365ZM47.0647 23.1365C44.7174 21.7787 41.9931 21 39.0718 21V11C43.798 11 48.2436 12.2659 52.0719 14.4805L47.0647 23.1365ZM39.0718 21C30.2391 21 23.0788 28.1603 23.0788 36.993H13.0788C13.0788 22.6375 24.7163 11 39.0718 11V21ZM23.0788 36.993C23.0788 45.8257 30.2391 52.986 39.0718 52.986V62.986C24.7163 62.986 13.0788 51.3485 13.0788 36.993H23.0788ZM39.0718 52.986C41.9931 52.986 44.7174 52.2073 47.0647 50.8495L52.0719 59.5055C48.2436 61.7201 43.798 62.986 39.0718 62.986V52.986Z" fill="white"/>
<path d="M92.6039 83.1776C92.6039 49.8442 28.6039 49.8442 28.6039 83.1776" stroke="white" stroke-width="10" stroke-linecap="round"/>
<path d="M51.2842 54.3741C53.9662 55.0319 55.607 57.7393 54.9492 60.4213C54.2914 63.1032 51.584 64.7441 48.902 64.0862L51.2842 54.3741ZM12.5823 83.1775C12.5823 85.939 10.3438 88.1775 7.58235 88.1775C4.82092 88.1775 2.58235 85.939 2.58235 83.1775H12.5823ZM48.902 64.0862C40.6164 62.0539 31.1881 62.8609 24.0296 66.302C17.0403 69.6618 12.5823 75.2606 12.5823 83.1775H2.58235C2.58235 70.5678 10.0806 61.912 19.6972 57.2893C29.1445 52.7479 40.9716 51.8446 51.2842 54.3741L48.902 64.0862Z" fill="white"/>
</svg>
